<?xml version="1.0" encoding="UTF-8"?><svg xmlns="http://www.w3.org/2000/svg" viewBox="0 0 135.61 132.22"><defs><style>.e{fill:#bf0c0c;}</style></defs><g id="a"/><g id="b"><g id="c"><path id="d" class="e" d="M0,0V132.22H135.61V0H0ZM5.65,5.65h124.31V126.57H5.65V5.65ZM47.04,74.87l-4.48,16.95c-.1,.47-.28,.58-.84,.58h-8.29c-.57,0-.65-.18-.57-.84l16.05-56.19c.4-1.54,.58-3.12,.55-4.71,0-.38,.19-.57,.47-.57h11.83c.38,0,.57,.1,.66,.57l18,60.99c.09,.47,0,.75-.47,.75h-9.32c-.47,0-.75-.11-.84-.49l-4.66-17.03h-18.12l.02-.02Zm15.75-9.18c-1.58-6.25-5.31-19.93-6.71-26.56h-.1c-1.21,6.61-4.19,17.8-6.53,26.56h13.34Zm25.43-31.4c-.08-3.19,2.44-5.85,5.63-5.93s5.85,2.44,5.93,5.63c0,.1,0,.2,0,.3,.22,2.98-2.03,5.57-5.01,5.79-.29,.02-.58,.02-.87,0-2.92,.23-5.48-1.95-5.71-4.88-.02-.3-.02-.6,0-.91h.02Zm.63,12.85c0-.45,.18-.62,.66-.62h8.87c.5,0,.68,.19,.68,.66v44.61c0,.47-.09,.66-.65,.66h-8.75c-.57,0-.75-.28-.75-.73V47.12h-.05Z"/></g></g></svg>