<?xml version="1.0" encoding="UTF-8"?><svg xmlns="http://www.w3.org/2000/svg" viewBox="0 0 135.61 132.22"><defs><style>.e{fill:#bf0c0c;}</style></defs><g id="a"/><g id="b"><g id="c"><path id="d" class="e" d="M0,0V132.22H135.61V0H0ZM5.65,5.65h124.31V126.57H5.65V5.65ZM49.58,91.64c0,.57-.1,.75-.75,.75h-8.66c-.57,0-.75-.28-.75-.75V30.98c0-.57,.28-.75,.75-.75h8.78c.46,0,.65,.19,.65,.66v60.76h0Zm10-21.88c0-13.52,8.92-24.05,23.18-24.05,1.21,0,1.88,0,2.98,.09v-15c-.01-.3,.23-.55,.53-.57,.01,0,.03,0,.04,0h9.18c.47,0,.57,.19,.57,.47v52.86c-.03,1.9,.06,3.79,.28,5.67,0,.38-.11,.47-.49,.66-4.63,2.22-9.7,3.36-14.83,3.36-12.5,0-21.47-7.74-21.47-23.49h.04Zm26.16-14.83c-1.07-.42-2.21-.61-3.36-.57-7.26,0-12.36,5.59-12.36,14.92,0,10.63,5.19,14.92,11.72,14.92,1.37,.04,2.73-.19,4.01-.65v-28.63h-.01Z"/></g></g></svg>