<?xml version="1.0" encoding="UTF-8"?><svg xmlns="http://www.w3.org/2000/svg" viewBox="0 0 135.61 132.22"><defs><style>.e{fill:#bf0c0c;}</style></defs><g id="a"/><g id="b"><g id="c"><path id="d" class="e" d="M0,0V132.22H135.61V0H0ZM5.65,5.65h124.31V126.57H5.65V5.65Zm27.12,25.31c0-.38,.79-.66,1.27-.66,3.64-.19,8.97-.28,14.57-.28,15.66,0,21.75,8.59,21.75,19.59,0,14.35-10.41,20.51-23.18,20.51-2.15,0-2.88-.09-4.38-.09v21.69c0,.47-.19,.66-.65,.66h-8.72c-.47,0-.65-.17-.65-.64V30.96h0Zm10.03,30.01c1.3,.09,2.33,.09,4.58,.09,6.61,0,12.81-2.33,12.81-11.28,0-7.16-4.44-10.81-11.99-10.81-2.24,0-4.38,.09-5.41,.19v21.85l.02-.03Zm48.63-6.71c-4.48,0-5.97,2.24-5.97,4.1,0,2.05,1.02,3.45,6.99,6.52,8.86,4.29,11.65,8.39,11.65,14.45,0,9.04-6.89,13.9-16.22,13.9-4,.14-7.98-.69-11.58-2.43-.38-.18-.45-.46-.45-.93v-8.29c0-.57,.27-.75,.64-.47,3.38,2.2,7.33,3.36,11.37,3.36,4.48,0,6.34-1.88,6.34-4.38,0-2.05-1.3-3.82-6.99-6.81-8.02-3.84-11.38-7.74-11.38-14.28,0-7.27,5.68-13.33,15.56-13.33,3.45-.14,6.89,.4,10.14,1.58,.38,.24,.6,.68,.57,1.13v7.74c0,.47-.28,.75-.85,.57-3.02-1.63-6.41-2.47-9.85-2.43h.03Z"/></g></g></svg>