<?xml version="1.0" encoding="UTF-8"?><svg xmlns="http://www.w3.org/2000/svg" viewBox="0 0 135.61 132.22"><defs><style>.e{fill:#bf0c0c;}</style></defs><g id="a"/><g id="b"><g id="c"><g><path id="d" class="e" d="M56.96,79.61c-1.49,1.49-1.49,3.91,0,5.4,1.49,1.49,3.91,1.49,5.4,0l24.29-24.29c2.98-2.98,7.81-2.98,10.79,0,2.98,2.98,2.98,7.81,0,10.79l-23.82,23.83c2.98,2.98,7.81,2.98,10.79,0h0l18.43-18.43c6.02-5.9,6.13-15.57,.23-21.59-5.9-6.02-15.57-6.13-21.59-.23-.08,.07-.15,.15-.23,.23l-24.29,24.28Zm37.78-16.19c-1.49-1.49-3.9-1.49-5.4,0h0l-24.29,24.29c-2.98,2.98-7.81,2.98-10.79,0h0c-1.49-1.49-3.9-1.49-5.4,0h0c-1.49,1.49-1.49,3.91,0,5.4h0c5.96,5.96,15.63,5.96,21.59,0l24.28-24.29c1.49-1.49,1.49-3.91,0-5.4h0Zm-40.48,13.49l24.29-24.29c1.49-1.49,1.5-3.91,0-5.4-1.49-1.49-3.91-1.5-5.4,0l-24.3,24.3c-2.98,2.98-7.81,2.98-10.79,0h0c-2.98-2.98-2.98-7.81,0-10.79h0l23.82-23.84c-2.98-2.98-7.81-2.98-10.79,0h0l-18.43,18.43c-5.96,5.96-5.96,15.63,0,21.59,5.96,5.96,15.63,5.96,21.59,0h0Zm-13.49-8.1c1.49,1.49,3.91,1.49,5.4,0l24.29-24.29c2.98-2.98,7.81-2.98,10.79,0h0c1.49,1.5,3.91,1.5,5.4,0,1.49-1.49,1.5-3.91,0-5.4-5.96-5.96-15.63-5.96-21.59,0h0l-24.3,24.29c-1.49,1.49-1.49,3.91,0,5.4h0Z"/><path class="e" d="M0,0V132.22H135.61V0H0ZM129.96,126.57H5.65V5.65h124.31V126.57Z"/></g></g></g></svg>