<svg id="svg" version="1.1" xmlns="http://www.w3.org/2000/svg" xmlns:xlink="http://www.w3.org/1999/xlink" width="400" height="399.91113085980896" viewBox="0, 0, 400,399.91113085980896"><g id="svgg"><path id="path0" d="M56.667 199.917 L 56.667 311.333 98.958 311.333 C 125.921 311.332,142.096 311.271,143.583 311.163 C 146.578 310.946,150.515 310.537,151.583 310.332 C 152.042 310.244,153.617 309.980,155.083 309.745 C 161.396 308.732,171.368 305.981,175.419 304.135 C 176.189 303.785,176.534 302.716,176.179 301.784 C 176.091 301.552,174.931 300.550,173.471 299.444 C 168.940 296.011,167.591 294.899,163.751 291.424 C 159.201 287.307,153.085 280.727,149.724 276.333 C 147.420 273.321,145.771 271.051,144.518 269.167 C 142.589 266.264,142.019 265.891,140.434 266.493 C 139.814 266.729,134.783 267.448,132.000 267.699 C 130.316 267.851,126.351 267.917,118.917 267.917 L 108.250 267.917 108.250 199.917 L 108.250 131.917 118.583 131.917 C 132.413 131.917,135.803 132.226,143.167 134.161 C 145.347 134.734,148.255 135.621,148.917 135.915 C 149.192 136.037,149.834 136.288,150.343 136.471 C 167.907 142.798,184.596 159.650,190.316 176.833 C 190.514 177.429,190.754 178.071,190.849 178.260 C 191.712 179.972,193.650 188.717,194.098 192.917 C 194.878 200.238,193.954 212.338,192.244 217.184 C 191.906 218.140,191.928 218.362,192.520 219.988 C 194.273 224.801,197.837 231.441,200.343 234.562 C 202.801 237.624,203.733 238.718,205.149 240.199 C 207.030 242.169,209.951 244.802,211.750 246.150 C 212.392 246.631,213.029 247.112,213.167 247.220 C 213.614 247.571,216.471 249.500,216.543 249.500 C 216.582 249.500,217.244 249.881,218.015 250.348 C 219.632 251.326,222.034 252.555,223.833 253.324 C 224.521 253.618,225.338 253.974,225.649 254.115 C 228.227 255.284,231.445 256.053,232.159 255.671 C 233.567 254.917,239.635 241.621,241.905 234.312 C 242.208 233.337,242.499 232.469,242.552 232.384 C 242.605 232.298,242.909 231.220,243.226 229.989 C 243.544 228.757,243.850 227.634,243.906 227.493 C 244.048 227.139,245.110 222.296,245.513 220.167 C 245.844 218.418,246.534 213.413,246.835 210.583 C 247.464 204.672,247.463 195.194,246.834 189.250 C 246.433 185.461,245.724 180.627,245.244 178.417 C 244.025 172.799,243.248 169.748,242.239 166.613 C 241.272 163.605,240.139 160.392,239.760 159.583 C 239.632 159.308,239.338 158.596,239.108 158.000 C 232.077 139.796,215.696 119.298,199.806 108.819 C 199.470 108.598,198.532 107.973,197.723 107.430 C 195.208 105.747,191.907 103.667,191.749 103.667 C 191.714 103.667,191.212 103.389,190.634 103.049 C 182.625 98.341,171.324 93.844,162.000 91.656 C 160.854 91.387,159.279 91.016,158.500 90.831 C 157.721 90.646,155.921 90.310,154.500 90.084 C 153.079 89.857,151.542 89.597,151.083 89.505 C 150.049 89.298,146.040 88.892,142.833 88.671 C 141.317 88.566,124.816 88.503,98.542 88.502 L 56.667 88.500 56.667 199.917 M239.000 88.684 C 234.962 88.984,228.274 89.902,225.218 90.575 C 224.594 90.712,223.231 91.011,222.190 91.239 C 215.999 92.594,207.770 95.320,207.121 96.231 C 206.302 97.381,206.672 98.225,208.607 99.625 C 210.179 100.762,210.354 100.896,212.833 102.867 C 215.423 104.926,216.028 105.435,218.566 107.693 C 220.828 109.705,226.506 115.391,228.252 117.394 C 228.801 118.023,229.394 118.692,229.570 118.880 C 230.144 119.496,234.448 124.834,235.044 125.671 C 238.064 129.907,237.849 129.755,240.484 129.515 C 245.905 129.020,251.675 129.134,257.000 129.841 C 266.665 131.123,277.922 135.212,284.867 139.963 C 285.261 140.233,285.817 140.573,286.104 140.720 C 289.280 142.348,297.859 149.988,301.505 154.435 C 303.711 157.127,306.393 160.778,307.129 162.094 C 307.284 162.371,308.753 161.664,313.417 159.065 C 313.783 158.861,314.608 158.418,315.250 158.081 C 315.892 157.743,316.717 157.300,317.083 157.095 C 317.655 156.775,322.375 154.237,326.250 152.166 C 327.468 151.516,328.051 151.199,331.083 149.542 C 334.183 147.849,342.052 143.621,342.620 143.345 C 343.341 142.993,343.378 143.103,341.564 140.261 C 333.603 127.789,322.524 116.211,311.083 108.410 C 308.143 106.406,307.927 106.263,306.686 105.500 C 306.015 105.087,305.214 104.585,304.906 104.384 C 302.481 102.801,296.950 99.939,291.750 97.577 C 287.115 95.471,280.013 93.087,274.083 91.647 C 270.167 90.696,269.218 90.497,266.667 90.084 C 265.246 89.855,263.661 89.590,263.146 89.496 C 258.843 88.710,244.939 88.242,239.000 88.684 M148.137 149.589 C 146.967 150.224,142.856 159.923,140.545 167.500 C 135.568 183.818,134.410 203.587,137.499 219.500 C 137.597 220.004,137.795 221.054,137.938 221.833 C 138.967 227.410,142.012 237.506,143.996 241.917 C 144.161 242.283,144.501 243.108,144.750 243.750 C 145.421 245.473,149.158 252.981,150.351 255.000 C 152.249 258.214,155.679 263.583,156.363 264.411 C 156.442 264.506,157.236 265.558,158.129 266.750 C 160.408 269.791,160.926 270.433,163.304 273.167 C 166.884 277.282,172.777 283.003,176.667 286.141 C 177.262 286.622,177.913 287.151,178.113 287.317 C 178.602 287.725,182.811 290.859,183.333 291.205 C 183.563 291.357,184.387 291.920,185.167 292.457 C 185.946 292.993,186.902 293.611,187.292 293.830 C 187.681 294.049,188.000 294.289,188.000 294.364 C 188.000 294.439,188.074 294.500,188.163 294.500 C 188.253 294.500,188.728 294.757,189.219 295.071 C 192.944 297.453,199.434 300.750,205.167 303.172 C 207.661 304.225,212.598 305.954,215.667 306.849 C 216.629 307.129,217.904 307.501,218.500 307.675 C 219.096 307.849,220.296 308.147,221.167 308.336 C 222.037 308.526,223.353 308.827,224.090 309.004 C 234.311 311.459,253.434 312.112,263.146 310.337 C 263.661 310.243,265.246 309.978,266.667 309.749 C 269.222 309.336,270.190 309.132,274.083 308.185 C 280.095 306.723,287.077 304.380,291.750 302.257 C 296.962 299.889,303.733 296.383,304.680 295.562 C 304.825 295.436,304.993 295.333,305.053 295.333 C 305.386 295.333,311.108 291.485,313.974 289.333 C 318.354 286.044,321.109 283.690,324.895 280.000 C 331.761 273.308,336.099 268.005,341.362 259.870 C 342.446 258.195,343.333 256.792,343.333 256.752 C 343.333 256.713,343.749 255.984,344.257 255.132 C 351.839 242.422,357.209 224.986,358.490 208.917 C 358.919 203.532,358.868 193.410,358.395 190.042 L 358.295 189.333 316.648 189.333 L 275.000 189.333 275.000 209.333 L 275.000 229.333 293.333 229.333 C 303.417 229.333,311.667 229.376,311.667 229.428 C 311.667 229.575,308.823 235.024,308.499 235.497 C 308.341 235.728,307.850 236.517,307.409 237.250 C 306.573 238.638,304.756 241.260,303.250 243.250 C 299.258 248.527,289.941 257.147,286.104 259.114 C 285.817 259.260,285.261 259.601,284.867 259.870 C 278.832 263.999,269.369 267.697,260.167 269.523 C 253.112 270.923,242.331 270.952,234.917 269.591 C 232.851 269.212,228.492 268.203,227.750 267.932 C 227.383 267.798,226.521 267.526,225.833 267.328 C 213.297 263.710,198.688 253.326,190.786 242.417 C 189.980 241.304,187.626 237.893,187.417 237.534 C 187.325 237.377,186.976 236.799,186.641 236.249 C 184.799 233.228,182.442 228.450,181.502 225.833 C 181.288 225.237,181.058 224.675,180.992 224.583 C 180.756 224.259,179.301 219.548,178.674 217.083 C 177.838 213.794,177.466 211.676,176.829 206.583 C 176.392 203.092,176.493 194.567,177.006 191.667 C 177.095 191.162,177.322 189.700,177.510 188.417 C 177.698 187.133,178.080 185.150,178.360 184.008 C 178.909 181.766,178.911 181.190,178.373 179.995 C 178.188 179.585,177.843 178.762,177.606 178.167 C 175.930 173.947,172.441 168.283,168.830 163.917 C 167.876 162.763,164.301 159.203,162.833 157.945 C 161.962 157.199,161.212 156.549,161.167 156.501 C 160.778 156.091,157.483 153.767,156.018 152.869 C 150.812 149.679,149.204 149.009,148.137 149.589 " stroke="none" fill="#fcfcfc" fill-rule="evenodd"></path><path id="path1" d="M72.833 0.115 C 65.623 0.678,57.361 2.512,51.126 4.934 C 50.325 5.245,49.633 5.500,49.589 5.500 C 49.546 5.500,49.100 5.687,48.599 5.917 C 48.098 6.146,47.648 6.333,47.600 6.333 C 47.485 6.333,43.704 8.101,43.167 8.406 C 42.938 8.536,42.262 8.889,41.667 9.190 C 41.071 9.491,40.396 9.861,40.167 10.011 C 39.938 10.161,38.887 10.793,37.833 11.414 C 36.779 12.035,35.892 12.608,35.861 12.688 C 35.831 12.768,35.736 12.833,35.651 12.833 C 35.566 12.833,35.040 13.152,34.483 13.542 C 33.926 13.931,33.308 14.361,33.110 14.496 C 32.912 14.631,32.010 15.306,31.105 15.996 C 30.200 16.686,29.256 17.400,29.007 17.583 C 28.758 17.767,28.441 18.029,28.301 18.167 C 28.162 18.304,27.456 18.922,26.732 19.540 C 26.009 20.157,24.217 21.885,22.750 23.379 C 19.366 26.827,18.852 27.406,16.587 30.333 C 14.615 32.882,14.326 33.284,13.402 34.750 C 13.056 35.300,12.721 35.787,12.658 35.833 C 12.595 35.879,12.036 36.779,11.414 37.833 C 10.793 38.887,10.161 39.938,10.010 40.167 C 9.551 40.864,6.916 46.183,6.501 47.250 C 6.287 47.800,6.055 48.326,5.985 48.419 C 5.915 48.511,5.697 49.036,5.500 49.585 C 5.302 50.134,4.928 51.146,4.669 51.833 C 2.725 56.979,1.353 62.825,0.364 70.167 C -0.070 73.386,-0.070 326.447,0.364 329.667 C 1.353 337.009,2.725 342.854,4.669 348.000 C 4.928 348.688,5.302 349.699,5.500 350.248 C 5.697 350.797,5.916 351.322,5.986 351.415 C 6.057 351.507,6.313 352.088,6.555 352.706 C 6.968 353.756,9.450 358.742,10.021 359.667 C 10.162 359.896,10.788 360.946,11.411 362.000 C 12.034 363.054,12.595 363.954,12.658 364.000 C 12.721 364.046,13.056 364.533,13.402 365.083 C 14.326 366.549,14.615 366.951,16.587 369.500 C 18.852 372.427,19.366 373.007,22.750 376.454 C 24.217 377.948,26.006 379.676,26.727 380.294 C 27.448 380.911,28.207 381.567,28.413 381.750 C 28.931 382.208,31.930 384.516,32.772 385.103 C 33.150 385.367,33.918 385.902,34.478 386.292 C 35.038 386.681,35.566 387.000,35.651 387.000 C 35.736 387.000,35.831 387.065,35.861 387.145 C 35.892 387.225,36.779 387.799,37.833 388.420 C 38.887 389.041,39.938 389.672,40.167 389.822 C 40.396 389.973,41.071 390.342,41.667 390.643 C 42.262 390.944,42.938 391.297,43.167 391.427 C 43.704 391.733,47.485 393.500,47.600 393.500 C 47.648 393.500,48.098 393.688,48.599 393.917 C 49.100 394.146,49.546 394.333,49.589 394.333 C 49.633 394.333,50.325 394.588,51.126 394.899 C 56.450 396.968,62.854 398.522,69.917 399.462 C 71.954 399.733,79.698 399.750,199.750 399.750 C 330.841 399.750,329.404 399.756,332.167 399.159 C 332.579 399.070,334.079 398.807,335.500 398.575 C 340.134 397.819,347.703 395.588,351.583 393.836 C 351.950 393.670,352.702 393.346,353.254 393.114 C 354.298 392.677,358.533 390.542,359.941 389.742 C 361.118 389.073,364.055 387.283,364.250 387.116 C 364.342 387.037,364.867 386.678,365.417 386.318 C 367.298 385.088,367.586 384.880,369.417 383.432 C 373.153 380.478,373.411 380.247,376.829 376.828 C 380.390 373.267,380.082 373.618,384.563 367.996 C 384.674 367.857,385.021 367.369,385.334 366.913 C 385.647 366.457,385.967 366.008,386.045 365.917 C 386.165 365.777,387.387 363.896,388.645 361.917 C 389.936 359.886,392.719 354.475,393.532 352.417 C 393.713 351.959,393.919 351.509,393.991 351.417 C 394.062 351.325,394.369 350.537,394.672 349.667 C 394.975 348.796,395.280 348.008,395.349 347.915 C 395.418 347.822,395.745 346.856,396.074 345.768 C 396.404 344.680,396.706 343.737,396.746 343.673 C 397.097 343.105,398.524 336.746,398.991 333.667 C 399.165 332.521,399.349 331.471,399.399 331.333 C 400.334 328.775,400.349 70.175,399.414 68.662 C 399.377 68.603,399.228 67.736,399.083 66.736 C 398.597 63.399,397.177 57.020,396.675 55.917 C 396.591 55.733,396.285 54.796,395.995 53.833 C 395.705 52.871,395.412 52.008,395.345 51.917 C 395.278 51.825,394.975 51.038,394.672 50.167 C 394.369 49.296,394.062 48.508,393.991 48.416 C 393.919 48.324,393.713 47.874,393.532 47.416 C 392.719 45.358,389.936 39.947,388.645 37.917 C 387.387 35.937,386.165 34.057,386.045 33.917 C 385.967 33.825,385.647 33.377,385.334 32.920 C 385.021 32.464,384.674 31.977,384.563 31.837 C 380.082 26.215,380.390 26.566,376.829 23.005 C 373.411 19.586,373.153 19.356,369.417 16.402 C 367.586 14.954,367.298 14.746,365.417 13.515 C 364.867 13.155,364.342 12.796,364.250 12.718 C 364.055 12.550,361.118 10.760,359.941 10.092 C 358.530 9.291,354.297 7.155,353.254 6.719 C 352.702 6.488,351.854 6.120,351.370 5.900 C 350.886 5.680,350.454 5.500,350.411 5.500 C 350.367 5.500,349.675 5.245,348.874 4.934 C 343.629 2.896,337.935 1.507,330.167 0.370 C 328.562 0.135,75.786 -0.115,72.833 0.115 M144.250 88.633 C 145.350 88.738,146.775 88.901,147.417 88.996 C 148.058 89.090,149.783 89.324,151.250 89.516 C 153.957 89.870,160.563 91.129,162.083 91.581 C 162.542 91.718,163.667 92.018,164.583 92.249 C 168.648 93.273,174.937 95.451,179.310 97.350 C 184.890 99.773,189.694 102.251,193.917 104.885 C 196.341 106.396,197.911 107.402,198.333 107.712 C 199.446 108.530,202.572 110.779,202.904 111.000 C 203.532 111.418,204.434 112.141,207.574 114.745 C 213.072 119.303,220.856 127.468,224.796 132.808 C 225.314 133.509,225.801 134.158,225.880 134.250 C 225.959 134.342,226.465 135.054,227.004 135.833 C 227.544 136.612,228.122 137.438,228.289 137.667 C 228.557 138.034,230.055 140.352,231.089 142.000 C 234.081 146.767,237.914 154.463,239.681 159.250 C 239.952 159.983,240.245 160.733,240.334 160.917 C 243.170 166.809,246.314 181.485,247.188 192.917 C 247.404 195.744,247.283 207.704,247.020 209.500 C 246.919 210.188,246.684 212.105,246.497 213.762 C 245.282 224.538,241.957 236.306,237.294 246.333 C 236.974 247.021,236.468 248.108,236.170 248.750 C 233.904 253.622,232.309 256.000,231.306 256.000 C 229.826 256.000,222.512 253.011,218.787 250.884 C 218.217 250.559,217.489 250.143,217.170 249.961 C 211.770 246.873,203.883 239.703,200.348 234.667 C 199.117 232.913,197.500 230.505,197.500 230.425 C 197.500 230.378,197.225 229.910,196.889 229.385 C 195.897 227.834,194.215 224.430,193.116 221.750 C 191.868 218.706,191.853 218.449,192.703 214.750 C 195.761 201.444,194.397 185.737,189.172 174.083 C 189.007 173.717,188.628 172.854,188.329 172.167 C 183.761 161.653,174.917 151.161,164.639 144.060 C 155.806 137.959,146.426 134.339,134.833 132.556 L 131.917 132.108 120.125 132.043 L 108.333 131.978 108.333 199.906 L 108.333 267.833 119.375 267.827 C 125.448 267.824,131.129 267.752,132.000 267.667 C 134.098 267.462,136.762 267.090,138.778 266.718 C 139.679 266.552,140.930 266.417,141.557 266.417 C 142.872 266.417,142.557 266.129,144.667 269.263 C 148.441 274.870,152.790 280.246,157.938 285.668 C 161.180 289.082,167.382 294.749,170.159 296.833 C 170.465 297.063,171.322 297.728,172.065 298.312 C 172.807 298.897,173.903 299.722,174.499 300.146 C 176.485 301.558,176.889 302.625,175.875 303.789 C 175.282 304.469,169.291 306.573,164.833 307.665 C 164.054 307.856,163.229 308.084,163.000 308.173 C 161.884 308.604,154.505 309.994,150.583 310.511 C 142.898 311.525,142.852 311.526,97.333 311.468 L 56.583 311.417 56.541 200.083 C 56.517 138.850,56.535 88.654,56.579 88.536 C 56.690 88.244,141.162 88.337,144.250 88.633 M256.333 88.654 C 257.479 88.748,258.942 88.902,259.583 88.996 C 260.225 89.090,261.912 89.318,263.333 89.503 C 265.728 89.815,271.369 90.869,273.500 91.403 C 280.025 93.037,285.114 94.729,291.167 97.276 C 295.141 98.948,301.418 102.116,303.833 103.668 C 303.971 103.757,304.308 103.953,304.583 104.104 C 307.068 105.468,314.480 110.643,317.480 113.109 C 323.657 118.183,330.907 125.472,334.472 130.192 C 334.842 130.682,335.619 131.696,336.198 132.445 C 337.352 133.938,337.819 134.587,339.921 137.621 C 340.698 138.742,341.333 139.696,341.333 139.741 C 341.333 139.785,341.746 140.455,342.250 141.228 C 343.493 143.136,343.705 142.851,339.302 145.194 C 337.177 146.325,334.946 147.518,334.344 147.846 C 333.742 148.174,332.575 148.802,331.750 149.241 C 330.925 149.680,330.025 150.172,329.750 150.336 C 329.332 150.584,322.608 154.208,319.083 156.085 C 318.533 156.378,317.633 156.864,317.083 157.164 C 316.533 157.464,314.208 158.720,311.917 159.955 C 309.625 161.190,307.654 162.279,307.538 162.374 C 307.421 162.470,307.302 162.518,307.274 162.482 C 307.246 162.446,306.785 161.742,306.250 160.917 C 300.368 151.841,291.057 143.221,281.592 138.089 C 273.730 133.826,266.108 131.225,258.167 130.096 C 257.112 129.946,255.875 129.753,255.417 129.666 C 252.697 129.150,245.369 129.078,240.468 129.519 C 237.846 129.755,237.686 129.647,235.108 125.896 C 234.194 124.567,230.835 120.413,229.116 118.486 C 228.823 118.157,227.987 117.220,227.257 116.403 C 225.186 114.082,220.244 109.200,217.822 107.083 C 215.564 105.109,211.543 101.864,209.607 100.452 C 207.020 98.565,206.743 98.248,206.766 97.203 C 206.793 96.004,207.275 95.672,210.667 94.518 C 215.204 92.975,216.249 92.662,220.750 91.504 C 225.876 90.186,234.465 88.885,240.541 88.507 C 243.446 88.326,253.480 88.419,256.333 88.654 M151.413 150.165 C 157.842 153.320,164.346 158.497,169.330 164.425 C 172.653 168.378,176.662 175.218,178.329 179.775 L 179.008 181.634 178.676 182.859 C 174.266 199.112,177.207 220.352,185.872 234.833 C 187.825 238.096,190.408 242.001,190.833 242.333 C 190.892 242.379,191.264 242.858,191.659 243.398 C 193.527 245.947,198.586 251.220,201.583 253.741 C 202.317 254.358,203.067 254.995,203.250 255.158 C 203.517 255.394,206.129 257.272,209.000 259.290 C 215.405 263.795,227.332 268.388,235.917 269.657 C 237.200 269.847,238.708 270.076,239.268 270.168 C 242.748 270.733,252.657 270.732,255.468 270.165 C 255.898 270.079,257.112 269.886,258.167 269.736 C 275.236 267.317,291.209 258.044,302.645 243.914 C 304.537 241.577,307.594 237.039,309.044 234.417 C 309.845 232.969,311.284 230.098,311.406 229.708 L 311.522 229.333 293.261 229.333 L 275.000 229.333 275.000 209.333 L 275.000 189.333 316.731 189.333 L 358.461 189.333 358.563 190.458 C 358.800 193.061,358.874 204.058,358.676 207.205 C 358.406 211.501,357.645 217.566,356.935 221.083 C 355.263 229.355,352.579 238.097,349.924 243.917 C 349.715 244.375,349.370 245.162,349.156 245.667 C 347.646 249.240,343.402 257.013,341.012 260.583 C 339.764 262.448,338.077 264.936,337.960 265.083 C 337.887 265.175,337.098 266.218,336.206 267.400 C 329.830 275.852,321.177 284.308,312.667 290.403 C 311.303 291.379,305.842 295.000,305.000 295.486 C 304.496 295.777,303.971 296.084,303.833 296.168 C 295.539 301.234,284.332 305.759,273.417 308.448 C 271.010 309.041,265.863 309.998,263.333 310.324 C 261.821 310.519,260.171 310.747,259.667 310.832 C 254.931 311.624,240.224 311.623,235.000 310.830 C 234.404 310.739,232.492 310.474,230.750 310.241 C 229.008 310.008,227.096 309.707,226.500 309.572 C 225.904 309.438,224.254 309.072,222.833 308.759 C 216.705 307.409,208.313 304.752,204.417 302.926 C 204.142 302.797,203.167 302.372,202.250 301.981 C 195.576 299.132,186.915 294.059,180.686 289.351 C 179.642 288.562,178.592 287.769,178.352 287.589 C 171.102 282.137,161.081 271.496,155.589 263.417 C 153.625 260.527,153.167 259.833,153.167 259.751 C 153.167 259.697,153.090 259.562,152.997 259.451 C 152.509 258.875,150.862 256.094,149.125 252.917 C 148.058 250.964,145.581 245.860,144.759 243.917 C 144.332 242.908,143.837 241.746,143.660 241.333 C 141.861 237.149,139.706 230.075,138.176 223.333 C 135.094 209.756,134.984 192.057,137.892 177.750 C 138.228 176.099,139.521 170.607,139.608 170.463 C 139.647 170.397,139.897 169.571,140.162 168.627 C 140.954 165.808,142.985 159.910,143.720 158.297 C 143.940 157.813,144.180 157.229,144.251 157.000 C 144.323 156.771,144.675 155.946,145.033 155.167 C 148.151 148.386,148.012 148.496,151.413 150.165 " stroke="none" fill="#c4242c" fill-rule="evenodd"></path><path id="path2" d="" stroke="none" fill="#e0c8100" fill-rule="evenodd"></path><path id="path3" d="M77.388 88.458 C 88.831 88.482,107.506 88.482,118.888 88.458 C 130.271 88.435,120.908 88.415,98.083 88.415 C 75.258 88.415,65.946 88.435,77.388 88.458 M245.042 88.458 C 246.302 88.486,248.365 88.486,249.625 88.458 C 250.885 88.430,249.854 88.406,247.333 88.406 C 244.813 88.406,243.781 88.430,245.042 88.458 M141.711 88.620 C 141.964 88.658,142.339 88.657,142.544 88.617 C 142.749 88.578,142.542 88.546,142.083 88.548 C 141.625 88.549,141.457 88.581,141.711 88.620 M239.958 88.618 C 240.165 88.657,240.502 88.657,240.708 88.618 C 240.915 88.578,240.746 88.545,240.333 88.545 C 239.921 88.545,239.752 88.578,239.958 88.618 M253.958 88.618 C 254.165 88.657,254.502 88.657,254.708 88.618 C 254.915 88.578,254.746 88.545,254.333 88.545 C 253.921 88.545,253.752 88.578,253.958 88.618 M144.294 88.785 C 144.501 88.824,144.801 88.823,144.960 88.781 C 145.120 88.739,144.950 88.707,144.583 88.709 C 144.217 88.711,144.086 88.745,144.294 88.785 M237.542 88.782 C 237.702 88.823,237.965 88.823,238.125 88.782 C 238.285 88.740,238.154 88.705,237.833 88.705 C 237.512 88.705,237.381 88.740,237.542 88.782 M256.542 88.782 C 256.702 88.823,256.965 88.823,257.125 88.782 C 257.285 88.740,257.154 88.705,256.833 88.705 C 256.512 88.705,256.381 88.740,256.542 88.782 M321.833 116.885 C 321.833 116.914,322.077 117.158,322.375 117.427 L 322.917 117.917 322.427 117.375 C 321.971 116.870,321.833 116.757,321.833 116.885 M108.249 199.917 C 108.249 237.317,108.268 252.592,108.292 233.861 C 108.315 215.131,108.315 184.531,108.292 165.861 C 108.268 147.192,108.249 162.517,108.249 199.917 M295.333 148.083 C 295.644 148.404,295.936 148.667,295.982 148.667 C 296.028 148.667,295.811 148.404,295.500 148.083 C 295.189 147.762,294.897 147.500,294.851 147.500 C 294.805 147.500,295.022 147.762,295.333 148.083 M299.083 151.833 C 299.441 152.200,299.772 152.500,299.818 152.500 C 299.863 152.500,299.608 152.200,299.250 151.833 C 298.892 151.467,298.562 151.167,298.516 151.167 C 298.470 151.167,298.725 151.467,299.083 151.833 M164.167 159.052 C 164.167 159.081,164.410 159.325,164.708 159.594 L 165.250 160.083 164.760 159.542 C 164.304 159.037,164.167 158.923,164.167 159.052 M165.500 160.385 C 165.500 160.414,165.744 160.658,166.042 160.927 L 166.583 161.417 166.094 160.875 C 165.638 160.370,165.500 160.257,165.500 160.385 M358.545 191.833 C 358.545 192.246,358.578 192.415,358.618 192.208 C 358.657 192.002,358.657 191.665,358.618 191.458 C 358.578 191.252,358.545 191.421,358.545 191.833 M247.218 194.750 C 247.219 195.300,247.250 195.505,247.287 195.205 C 247.325 194.906,247.324 194.456,247.286 194.205 C 247.248 193.955,247.217 194.200,247.218 194.750 M194.212 195.333 C 194.212 195.746,194.245 195.915,194.284 195.708 C 194.324 195.502,194.324 195.165,194.284 194.958 C 194.245 194.752,194.212 194.921,194.212 195.333 M176.569 199.917 C 176.569 201.567,176.594 202.219,176.624 201.367 C 176.655 200.514,176.654 199.164,176.624 198.367 C 176.593 197.569,176.569 198.267,176.569 199.917 M194.209 204.583 C 194.211 204.950,194.245 205.080,194.285 204.873 C 194.324 204.666,194.323 204.366,194.281 204.206 C 194.239 204.047,194.207 204.217,194.209 204.583 M247.218 205.083 C 247.219 205.633,247.250 205.838,247.287 205.539 C 247.325 205.239,247.324 204.789,247.286 204.539 C 247.248 204.288,247.217 204.533,247.218 205.083 M194.039 206.667 C 194.039 206.987,194.073 207.119,194.115 206.958 C 194.157 206.798,194.157 206.535,194.115 206.375 C 194.073 206.215,194.039 206.346,194.039 206.667 M358.542 208.083 C 358.544 208.450,358.578 208.580,358.618 208.373 C 358.658 208.166,358.656 207.866,358.615 207.706 C 358.573 207.547,358.540 207.717,358.542 208.083 M299.158 247.958 L 298.583 248.583 299.208 248.009 C 299.552 247.693,299.833 247.412,299.833 247.384 C 299.833 247.257,299.692 247.377,299.158 247.958 M197.250 249.833 C 198.347 250.933,199.282 251.833,199.328 251.833 C 199.374 251.833,198.514 250.933,197.417 249.833 C 196.320 248.733,195.384 247.833,195.339 247.833 C 195.293 247.833,196.153 248.733,197.250 249.833 M295.324 251.792 L 294.750 252.417 295.375 251.842 C 295.719 251.526,296.000 251.245,296.000 251.217 C 296.000 251.090,295.859 251.210,295.324 251.792 M329.906 274.875 L 329.417 275.417 329.958 274.927 C 330.463 274.471,330.577 274.333,330.448 274.333 C 330.419 274.333,330.175 274.577,329.906 274.875 M162.833 290.552 C 162.833 290.581,163.077 290.825,163.375 291.094 L 163.917 291.583 163.427 291.042 C 162.971 290.537,162.833 290.423,162.833 290.552 M145.042 311.115 C 145.202 311.157,145.465 311.157,145.625 311.115 C 145.785 311.073,145.654 311.039,145.333 311.039 C 145.012 311.039,144.881 311.073,145.042 311.115 M237.542 311.115 C 237.702 311.157,237.965 311.157,238.125 311.115 C 238.285 311.073,238.154 311.039,237.833 311.039 C 237.512 311.039,237.381 311.073,237.542 311.115 M256.542 311.115 C 256.702 311.157,256.965 311.157,257.125 311.115 C 257.285 311.073,257.154 311.039,256.833 311.039 C 256.512 311.039,256.381 311.073,256.542 311.115 M142.458 311.284 C 142.665 311.324,143.002 311.324,143.208 311.284 C 143.415 311.245,143.246 311.212,142.833 311.212 C 142.421 311.212,142.252 311.245,142.458 311.284 M239.958 311.284 C 240.165 311.324,240.502 311.324,240.708 311.284 C 240.915 311.245,240.746 311.212,240.333 311.212 C 239.921 311.212,239.752 311.245,239.958 311.284 M253.958 311.284 C 254.165 311.324,254.502 311.324,254.708 311.284 C 254.915 311.245,254.746 311.212,254.333 311.212 C 253.921 311.212,253.752 311.245,253.958 311.284 M77.555 311.458 C 89.090 311.482,107.915 311.482,119.388 311.458 C 130.862 311.435,121.425 311.415,98.417 311.415 C 75.408 311.415,66.021 311.435,77.555 311.458 M245.042 311.458 C 246.302 311.486,248.365 311.486,249.625 311.458 C 250.885 311.430,249.854 311.406,247.333 311.406 C 244.813 311.406,243.781 311.430,245.042 311.458 " stroke="none" fill="#e05898" fill-rule="evenodd"></path><path id="path4" d="M56.583 199.917 C 56.583 261.242,56.602 286.354,56.625 255.722 C 56.648 225.090,56.648 174.915,56.625 144.222 C 56.602 113.529,56.583 138.592,56.583 199.917 M247.039 191.667 C 247.039 191.987,247.073 192.119,247.115 191.958 C 247.157 191.798,247.157 191.535,247.115 191.375 C 247.073 191.215,247.039 191.346,247.039 191.667 M194.397 199.917 C 194.397 201.017,194.424 201.445,194.457 200.868 C 194.490 200.292,194.489 199.392,194.456 198.868 C 194.423 198.345,194.397 198.817,194.397 199.917 M247.042 208.250 C 247.044 208.617,247.078 208.747,247.118 208.540 C 247.158 208.332,247.156 208.032,247.115 207.873 C 247.073 207.714,247.040 207.883,247.042 208.250 M230.792 255.951 C 230.998 255.991,231.335 255.991,231.542 255.951 C 231.748 255.911,231.579 255.879,231.167 255.879 C 230.754 255.879,230.585 255.911,230.792 255.951 " stroke="none" fill="#e05c2c" fill-rule="evenodd"></path></g></svg>