<svg id="svg" version="1.1" xmlns="http://www.w3.org/2000/svg" xmlns:xlink="http://www.w3.org/1999/xlink" width="400" height="393.9142461964039" viewBox="0, 0, 400,393.9142461964039"><g id="svgg"><path id="path0" d="M193.000 0.284 C 154.045 2.361,118.166 20.918,94.064 51.452 L 91.772 54.357 87.707 55.907 C 5.949 87.081,-25.591 184.758,22.690 257.261 L 24.809 260.443 24.984 265.145 C 28.168 350.826,112.371 411.878,195.700 388.925 C 197.975 388.298,200.091 387.843,200.402 387.912 C 200.714 387.982,202.898 388.549,205.256 389.173 C 288.922 411.309,371.236 350.972,375.007 264.744 L 375.194 260.470 377.320 257.275 C 425.844 184.344,393.491 85.851,311.029 55.467 L 308.228 54.435 305.463 50.938 C 278.700 17.092,236.262 -2.023,193.000 0.284 M213.278 18.939 C 236.812 21.846,259.276 31.718,276.099 46.545 L 277.593 47.862 274.274 47.652 C 250.195 46.125,227.159 50.653,205.564 61.158 L 199.925 63.901 196.159 61.996 C 174.014 50.793,148.803 45.788,124.343 47.736 L 122.407 47.890 123.790 46.613 C 145.720 26.357,182.145 15.092,213.278 18.939 M141.812 65.692 C 153.917 66.173,169.097 69.753,181.005 74.937 L 182.343 75.519 179.761 77.613 C 165.669 89.040,153.502 104.105,144.923 120.747 C 143.825 122.877,142.891 124.666,142.846 124.722 C 142.801 124.778,140.922 125.112,138.670 125.464 C 120.283 128.334,101.780 135.344,86.782 145.123 C 83.427 147.310,83.654 147.355,83.446 144.467 C 81.582 118.552,87.553 94.408,101.163 72.823 C 103.186 69.614,102.648 69.924,108.714 68.474 C 116.951 66.505,129.530 65.135,136.376 65.461 C 137.365 65.509,139.811 65.612,141.812 65.692 M274.274 65.855 C 279.310 66.245,284.882 67.079,289.907 68.195 C 297.391 69.856,296.732 69.499,298.968 73.100 C 312.218 94.441,318.280 118.520,316.612 143.182 C 316.331 147.328,316.508 147.240,312.977 145.003 C 297.077 134.931,278.878 128.052,261.272 125.460 C 259.599 125.214,257.953 124.953,257.614 124.882 C 257.143 124.782,256.515 123.796,254.932 120.674 C 246.593 104.229,233.092 87.644,219.311 76.915 C 217.357 75.394,217.173 75.603,222.202 73.634 C 239.259 66.954,256.053 64.445,274.274 65.855 M74.836 84.441 C 65.764 106.393,62.825 132.463,66.695 156.649 L 67.261 160.186 63.646 163.929 C 46.421 181.766,34.243 203.344,28.887 225.519 C 28.455 227.306,28.013 228.769,27.904 228.769 C 27.635 228.769,25.090 222.259,23.753 218.148 C 8.438 171.081,24.763 119.269,64.355 89.286 C 66.664 87.538,69.080 85.898,75.104 81.992 C 76.056 81.375,76.038 81.532,74.836 84.441 M326.910 83.295 C 374.600 113.278,394.341 172.551,373.955 224.545 C 372.103 229.269,371.915 229.538,371.637 227.871 C 371.529 227.224,370.779 224.391,369.971 221.577 C 363.683 199.675,352.227 180.137,335.980 163.604 L 332.629 160.195 332.973 158.334 C 337.332 134.714,334.493 107.774,325.211 84.681 C 324.530 82.989,324.029 81.604,324.097 81.604 C 324.165 81.604,325.431 82.365,326.910 83.295 M203.043 87.376 C 211.399 93.268,221.758 103.403,228.107 111.895 C 231.067 115.856,235.961 123.238,235.961 123.744 C 235.961 123.798,234.250 123.925,232.158 124.024 C 222.904 124.466,212.715 126.180,202.939 128.940 L 199.931 129.789 196.992 128.944 C 187.084 126.098,173.722 123.943,165.906 123.931 C 163.716 123.928,163.764 124.043,165.058 121.890 C 173.002 108.677,184.205 96.532,196.912 87.358 C 200.273 84.932,199.575 84.930,203.043 87.376 M170.647 142.387 C 171.284 142.632,171.259 142.670,169.955 143.428 C 165.078 146.267,157.463 151.818,151.279 157.043 C 150.460 157.736,153.926 144.928,155.255 142.353 C 155.551 141.779,169.145 141.808,170.647 142.387 M246.067 146.407 C 247.661 151.321,249.117 156.784,248.893 157.009 C 248.811 157.091,247.393 156.026,245.741 154.643 C 242.187 151.666,235.320 146.710,231.482 144.352 C 229.977 143.427,228.817 142.598,228.905 142.510 C 229.222 142.193,233.437 141.987,238.993 142.017 L 244.652 142.047 246.067 146.407 M134.818 146.680 C 132.422 154.921,130.590 166.623,130.130 176.625 L 129.952 180.498 127.252 184.647 C 122.147 192.492,117.843 200.778,114.628 208.953 L 113.011 213.066 111.934 211.858 C 101.224 199.842,92.771 184.354,87.552 167.185 C 87.431 166.787,92.568 163.009,97.543 159.836 C 104.901 155.143,116.178 149.911,124.500 147.328 C 127.146 146.507,134.676 144.478,135.307 144.416 C 135.403 144.406,135.183 145.425,134.818 146.680 M269.710 145.742 C 283.362 149.253,296.491 155.376,308.032 163.616 C 312.826 167.039,312.547 166.571,311.633 169.648 C 308.333 180.758,301.872 193.571,294.398 203.827 C 291.802 207.390,287.118 213.075,286.933 212.889 C 286.868 212.824,285.950 210.613,284.894 207.976 C 281.535 199.591,276.136 189.433,271.587 182.937 L 270.072 180.775 269.740 175.242 C 269.170 165.761,267.924 157.643,265.718 149.025 C 264.734 145.182,264.606 144.407,264.976 144.512 C 265.221 144.582,267.352 145.136,269.710 145.742 M204.439 150.755 C 221.856 158.081,237.665 169.686,249.477 183.817 L 251.789 186.584 251.608 189.765 C 250.574 207.894,244.567 226.916,234.751 243.147 L 232.161 247.428 230.534 247.918 C 213.614 253.015,190.680 253.251,171.789 248.523 C 167.522 247.455,168.058 247.903,165.049 242.888 C 155.108 226.321,148.299 204.174,148.274 188.323 L 148.271 186.466 150.381 183.897 C 161.600 170.233,178.109 158.138,195.851 150.586 C 199.955 148.838,199.879 148.837,204.439 150.755 M76.741 190.282 C 83.336 204.886,92.146 217.766,103.624 229.580 L 107.546 233.618 107.153 235.689 C 103.857 253.046,104.710 274.614,109.405 292.647 C 109.937 294.689,110.312 296.420,110.238 296.493 C 110.165 296.567,108.516 296.218,106.574 295.719 C 82.438 289.515,61.047 276.114,45.410 257.400 L 42.867 254.357 43.023 252.144 C 44.867 225.925,53.863 203.367,70.356 183.604 L 72.843 180.624 74.144 184.019 C 74.860 185.886,76.029 188.704,76.741 190.282 M330.679 184.924 C 346.002 203.633,355.189 226.821,356.818 250.899 L 357.052 254.357 354.957 256.985 C 344.415 270.206,327.309 282.884,310.349 290.046 C 304.190 292.647,290.259 296.990,289.740 296.471 C 289.671 296.402,290.171 294.090,290.852 291.333 C 295.234 273.604,295.970 254.426,292.949 236.678 L 292.436 233.660 296.691 229.209 C 310.124 215.156,320.822 198.279,326.572 182.070 L 327.093 180.599 327.867 181.517 C 328.292 182.021,329.558 183.555,330.679 184.924 M136.645 224.157 C 137.435 226.566,138.744 230.209,139.554 232.255 L 141.025 235.973 140.015 235.367 C 135.295 232.537,127.801 227.208,127.801 226.682 C 127.801 226.048,130.262 218.801,131.699 215.202 L 133.147 211.577 134.177 215.678 C 134.744 217.933,135.854 221.749,136.645 224.157 M270.562 221.620 C 271.462 224.306,272.198 226.609,272.196 226.738 C 272.189 227.168,264.055 232.914,259.952 235.386 L 258.908 236.014 259.502 234.536 C 262.356 227.422,264.230 221.762,265.868 215.300 L 266.794 211.650 267.859 214.193 C 268.445 215.592,269.662 218.934,270.562 221.620 M129.461 250.179 C 136.495 254.533,145.516 258.935,153.066 261.697 L 156.616 262.996 159.152 266.185 C 164.867 273.374,171.391 280.047,178.494 285.970 C 180.592 287.720,182.268 289.193,182.218 289.244 C 182.168 289.294,180.453 290.006,178.408 290.826 C 164.679 296.333,150.753 299.100,136.515 299.149 L 130.429 299.170 128.999 294.882 C 124.664 281.888,122.716 267.571,123.390 253.665 C 123.728 246.676,123.751 246.568,124.714 247.208 C 125.119 247.477,127.254 248.814,129.461 250.179 M276.182 247.649 C 276.277 248.143,276.430 252.158,276.521 256.570 C 276.815 270.758,275.090 282.557,270.880 295.159 L 269.540 299.170 263.470 299.126 C 248.562 299.017,233.292 295.826,219.477 289.932 L 217.707 289.177 221.509 286.013 C 228.418 280.263,235.445 273.058,241.017 266.010 L 243.394 263.002 247.216 261.561 C 256.803 257.944,266.883 252.820,273.859 248.019 C 276.032 246.524,275.968 246.534,276.182 247.649 M197.372 269.892 C 202.241 269.969,207.656 269.911,209.405 269.765 C 211.155 269.619,212.625 269.534,212.673 269.575 C 212.846 269.729,205.933 275.275,203.011 277.327 L 199.998 279.442 197.218 277.458 C 191.818 273.602,186.659 269.270,187.828 269.574 C 188.209 269.673,192.503 269.816,197.372 269.892 M50.657 287.778 C 68.905 302.536,94.344 313.497,116.353 316.084 L 117.877 316.263 119.140 318.781 C 130.646 341.724,148.655 361.300,170.381 374.480 L 171.328 375.055 169.966 375.287 C 167.267 375.746,150.968 375.556,146.611 375.015 C 98.053 368.981,59.004 335.110,46.735 288.382 C 46.136 286.100,45.645 284.129,45.645 284.002 C 45.643 283.731,45.814 283.860,50.657 287.778 M353.243 288.236 C 339.980 339.837,293.532 375.613,239.972 375.482 C 227.845 375.453,227.959 375.482,231.470 373.306 C 251.679 360.780,269.608 341.089,280.231 319.754 L 281.965 316.271 284.482 315.942 C 307.792 312.891,332.727 301.765,351.728 285.935 C 353.097 284.795,354.244 283.889,354.277 283.922 C 354.310 283.955,353.845 285.896,353.243 288.236 M205.284 303.319 C 221.859 311.496,238.744 315.940,257.890 317.165 L 260.871 317.356 260.134 318.637 C 248.050 339.629,226.759 357.889,203.491 367.214 C 199.638 368.758,200.205 368.819,194.053 366.200 C 172.523 357.035,153.655 340.815,140.982 320.575 C 139.970 318.959,139.142 317.577,139.142 317.504 C 139.142 317.432,140.667 317.287,142.531 317.183 C 161.922 316.103,186.804 308.964,199.910 300.722 C 199.936 300.705,202.355 301.874,205.284 303.319 " stroke="none" fill="#ececec" fill-rule="evenodd"></path><path id="path1" d="" stroke="none" fill="#f0ecec" fill-rule="evenodd"></path><path id="path2" d="" stroke="none" fill="#f0ecec" fill-rule="evenodd"></path><path id="path3" d="" stroke="none" fill="#f0ecec" fill-rule="evenodd"></path><path id="path4" d="" stroke="none" fill="#f0ecec" fill-rule="evenodd"></path></g></svg>