<?xml version="1.0" encoding="UTF-8"?><svg xmlns="http://www.w3.org/2000/svg" viewBox="0 0 633.55 658.62"><defs><style>.f{fill:#fff;}.g{fill:#c0262e;}</style></defs><g id="a"/><g id="b"><g id="c"><path class="g" d="M628.79,277.8c-24.51-98.41-99.5-163.89-215.1-163.89-4.64,0-9.22,.12-13.75,.34,5.54,10.79,10.38,22.2,14.5,34.2,1.34,3.92,2.6,7.92,3.79,11.97,77.77,1.55,134.21,43.13,158.61,119.57l1.46,3.66h51.95l-1.46-5.85Z"/></g><g id="d"><path class="f" d="M499.85,384.99h-36.46v43.9h120.4v11.71c0,1.59-.02,3.18-.05,4.76-.13,6.31-.53,12.5-1.18,18.55-.33,3.02-.72,6.01-1.17,8.97-.45,2.95-.97,5.87-1.54,8.75-.58,2.88-1.22,5.72-1.92,8.53-18.54,74.35-79.73,122.02-164.25,122.02-2,0-3.99-.03-5.96-.09-.62-.02-1.23-.05-1.85-.07-1.37-.05-2.73-.11-4.09-.19-.69-.04-1.38-.08-2.07-.13-1.31-.09-2.62-.19-3.93-.3-.64-.06-1.29-.11-1.93-.17-1.54-.15-3.07-.32-4.59-.5-.37-.04-.75-.08-1.12-.13-1.9-.24-3.78-.5-5.65-.8-.44-.07-.87-.15-1.31-.22-1.43-.23-2.85-.48-4.26-.74-.6-.11-1.19-.23-1.78-.35-1.28-.25-2.55-.52-3.81-.8-.58-.13-1.17-.26-1.75-.39-1.37-.32-2.73-.65-4.09-1-.43-.11-.86-.21-1.28-.32-1.81-.48-3.6-.98-5.38-1.51-.05-.01-.09-.03-.14-.04-1.7-.51-3.38-1.05-5.06-1.61-.44-.15-.88-.3-1.33-.46-1.29-.44-2.58-.9-3.86-1.38-.48-.18-.97-.36-1.45-.55-1.3-.5-2.59-1.01-3.87-1.53-.39-.16-.78-.32-1.17-.48-3.37-1.42-6.69-2.94-9.93-4.57-.22-.11-.45-.23-.67-.34-1.38-.7-2.75-1.42-4.1-2.16-.35-.19-.71-.39-1.06-.59-1.27-.7-2.52-1.42-3.77-2.16-.31-.19-.63-.37-.94-.56-1.47-.88-2.93-1.78-4.37-2.71-.05-.03-.09-.06-.14-.09-3.1-2.01-6.13-4.12-9.09-6.34-.21-.15-.41-.31-.62-.47-1.26-.95-2.5-1.92-3.73-2.91-.23-.18-.46-.37-.68-.55-1.31-1.07-2.61-2.15-3.89-3.26-.08-.07-.16-.14-.25-.21-2.85-2.48-5.62-5.06-8.31-7.74-.04-.04-.07-.07-.1-.11-1.27-1.27-2.51-2.56-3.74-3.87-.14-.15-.29-.31-.43-.46-1.19-1.27-2.36-2.57-3.51-3.89-.08-.09-.16-.18-.25-.28-3.78-4.33-7.38-8.89-10.79-13.68-.07-.09-.13-.18-.2-.28-1.07-1.5-2.12-3.03-3.15-4.58-.07-.11-.15-.22-.22-.33-3.3-4.97-6.41-10.15-9.32-15.56h0c-19.74-36.64-30.51-83.19-30.51-137.6v-.37c0-108.41,43.87-183.8,118.25-211.1-5.36-15.8-12.28-30.06-20.72-42.74-92.44,34.39-148.38,125.87-148.38,253.84v.37h0c0,56.56,10.56,106.26,30.02,147.31h0c1.79,3.78,3.66,7.49,5.6,11.13l.02,.03c1.93,3.61,3.94,7.15,6.02,10.62l.07,.12c2.06,3.43,4.19,6.78,6.39,10.06,.05,.08,.1,.15,.15,.23,2.17,3.23,4.42,6.39,6.73,9.48,.09,.12,.18,.24,.27,.36,2.28,3.03,4.62,5.98,7.02,8.86,.14,.17,.28,.34,.43,.51,2.36,2.81,4.78,5.55,7.26,8.23,.21,.22,.42,.45,.63,.67,2.43,2.59,4.92,5.12,7.46,7.58,.29,.28,.58,.55,.86,.83,2.49,2.38,5.03,4.69,7.62,6.93,.38,.33,.76,.65,1.14,.98,1.61,1.37,3.24,2.72,4.89,4.05,.15,.12,.31,.25,.46,.37,.79,.63,1.59,1.25,2.39,1.87,.48,.37,.96,.74,1.44,1.1,1.25,.95,2.52,1.89,3.8,2.81,.57,.41,1.14,.83,1.72,1.24,.76,.54,1.53,1.07,2.3,1.6,.59,.41,1.18,.81,1.77,1.2,1,.67,2.01,1.34,3.02,2,.87,.57,1.75,1.13,2.63,1.68,.73,.46,1.47,.91,2.2,1.36,.71,.43,1.42,.86,2.14,1.28,.81,.48,1.61,.96,2.43,1.42,1.11,.64,2.23,1.27,3.35,1.89,.7,.38,1.4,.76,2.1,1.13,.84,.45,1.68,.89,2.52,1.33,.64,.33,1.27,.67,1.91,.99,1.31,.66,2.63,1.31,3.96,1.95,.66,.32,1.32,.63,1.99,.93,.96,.45,1.93,.89,2.9,1.33,.58,.26,1.15,.52,1.73,.77,1.4,.61,2.82,1.21,4.24,1.79,.62,.26,1.25,.51,1.87,.76,1.1,.44,2.21,.87,3.32,1.3,.5,.19,1,.39,1.51,.58,1.49,.56,3,1.1,4.51,1.62,.59,.2,1.18,.41,1.77,.61,1.24,.42,2.48,.83,3.73,1.23,.43,.14,.85,.28,1.28,.41,1.58,.49,3.17,.97,4.77,1.43,.55,.16,1.11,.32,1.67,.47,1.37,.39,2.76,.76,4.14,1.12,.35,.09,.7,.19,1.05,.28,1.66,.42,3.34,.83,5.02,1.22,.53,.12,1.06,.24,1.59,.36,1.51,.34,3.02,.66,4.54,.98,.27,.06,.54,.12,.81,.17,1.74,.35,3.5,.67,5.27,.99,.51,.09,1.01,.18,1.52,.26,1.64,.28,3.28,.55,4.93,.79,.2,.03,.39,.06,.59,.09,1.82,.27,3.65,.51,5.49,.74,.49,.06,.98,.12,1.47,.18,1.76,.21,3.53,.41,5.31,.58,.12,.01,.24,.03,.37,.04,1.88,.18,3.78,.34,5.69,.48,.48,.04,.97,.07,1.45,.1,1.87,.13,3.75,.25,5.65,.34,.06,0,.11,0,.17,0,1.94,.09,3.9,.16,5.86,.21,.48,.01,.97,.02,1.45,.03,1.97,.04,3.95,.07,5.95,.07,21.38,0,41.44-2.14,60.08-6.3,1.86-.42,3.71-.85,5.55-1.31,7.34-1.82,14.45-3.97,21.33-6.42,1.72-.61,3.42-1.25,5.11-1.9,8.45-3.26,16.52-7.01,24.2-11.23,7.69-4.22,14.98-8.9,21.88-14.03,4.14-3.08,8.13-6.32,11.98-9.73,5.13-4.54,10-9.36,14.6-14.45,2.3-2.55,4.53-5.16,6.7-7.84,5.41-6.71,10.39-13.84,14.94-21.37,1.82-3.01,3.56-6.09,5.24-9.24,.84-1.57,1.66-3.16,2.46-4.76,1.6-3.21,3.14-6.48,4.6-9.81,.73-1.67,1.44-3.35,2.14-5.05,12.49-30.55,19.05-66.12,19.05-105.93h0v-44.26h-133.7Z"/></g><g id="e"><path class="g" d="M178.88,482.33c-3.49,.12-7.02,.19-10.6,.19H45.37V45.36h122.91c129.87,0,202.3,77.92,202.3,218.39v.73c0,107.1-42.56,178.08-120.9,205.41,4.43,15.89,10.16,30.52,17.1,43.8,98.97-32.54,154.65-119.96,154.65-249.58v-.73C421.42,96.58,328.87,0,171.2,0H0V527.88H171.2c7.87,0,15.57-.25,23.11-.73-6.17-14.12-11.32-29.09-15.43-44.82Z"/></g></g></svg>