<svg id="svg" version="1.1" xmlns="http://www.w3.org/2000/svg" xmlns:xlink="http://www.w3.org/1999/xlink" width="400" height="295.4666666666667" viewBox="0, 0, 400,295.4666666666667"><g id="svgg"><path id="path0" d="M0.000 147.672 L 0.000 295.343 56.708 295.280 C 118.032 295.211,114.026 295.269,121.917 294.341 C 126.293 293.826,131.084 293.061,134.917 292.263 C 136.829 291.865,141.231 290.845,141.500 290.737 C 141.637 290.682,142.612 290.415,143.667 290.144 C 144.721 289.873,146.146 289.473,146.833 289.257 C 151.433 287.805,154.607 286.766,154.750 286.663 C 154.842 286.598,155.436 286.374,156.072 286.165 C 159.401 285.073,159.374 282.875,156.000 280.369 C 154.854 279.518,153.692 278.645,153.417 278.430 C 153.142 278.215,152.392 277.640,151.750 277.153 C 150.709 276.363,149.039 275.015,146.844 273.196 C 142.034 269.209,135.228 262.632,130.583 257.481 C 129.783 256.593,129.450 256.212,126.667 252.994 C 125.979 252.199,124.717 250.656,123.862 249.566 C 123.006 248.475,122.216 247.470,122.105 247.331 C 121.275 246.290,118.252 242.134,117.500 241.001 C 117.271 240.655,116.950 240.195,116.787 239.978 C 116.623 239.761,115.974 238.796,115.344 237.833 C 113.699 235.321,113.238 235.159,109.833 235.899 C 108.522 236.184,103.857 236.901,101.583 237.167 C 98.436 237.536,93.136 237.665,81.125 237.666 L 68.333 237.667 68.333 147.653 L 68.333 57.638 82.792 57.715 C 96.515 57.788,99.010 57.867,102.083 58.330 C 109.307 59.416,108.875 59.335,114.250 60.612 C 115.258 60.851,116.158 61.099,116.250 61.163 C 116.342 61.226,116.942 61.415,117.583 61.583 C 119.613 62.112,124.810 63.995,127.250 65.085 C 127.708 65.290,128.571 65.671,129.167 65.933 C 130.564 66.545,134.816 68.709,136.000 69.410 C 136.504 69.709,137.479 70.281,138.167 70.681 C 139.431 71.417,143.846 74.308,144.000 74.501 C 144.046 74.558,144.458 74.860,144.917 75.171 C 145.676 75.686,147.966 77.466,150.083 79.187 C 152.760 81.363,157.021 85.529,159.678 88.571 C 159.993 88.931,160.362 89.347,160.500 89.496 C 160.987 90.021,162.421 91.732,162.750 92.180 C 162.933 92.430,163.639 93.373,164.319 94.275 C 166.424 97.070,166.796 97.607,168.582 100.417 C 170.617 103.620,174.667 111.174,174.667 111.769 C 174.667 111.816,174.848 112.243,175.070 112.719 C 177.470 117.863,180.286 127.539,181.240 133.917 C 182.698 143.665,182.675 152.004,181.162 162.083 C 180.984 163.275,180.764 164.512,180.674 164.833 C 180.584 165.154,180.251 166.579,179.934 168.000 C 179.616 169.421,179.266 170.904,179.157 171.297 C 178.885 172.265,180.319 176.385,182.404 180.629 C 182.732 181.296,183.000 181.872,183.000 181.910 C 183.000 182.077,185.456 186.533,186.107 187.547 C 186.507 188.168,186.833 188.736,186.833 188.807 C 186.833 188.879,186.975 189.090,187.149 189.276 C 187.323 189.462,187.586 189.833,187.735 190.099 C 190.579 195.194,199.214 204.461,205.417 209.075 C 206.150 209.620,206.787 210.112,206.833 210.167 C 206.963 210.324,212.148 213.726,213.083 214.267 C 213.542 214.533,214.217 214.922,214.583 215.133 C 215.607 215.720,221.863 218.777,222.333 218.920 C 222.563 218.989,223.125 219.215,223.583 219.421 C 228.101 221.452,231.478 222.173,232.544 221.334 C 233.361 220.692,238.672 210.560,239.970 207.167 C 240.058 206.938,240.326 206.324,240.565 205.803 C 241.032 204.785,241.694 203.145,242.605 200.750 C 242.918 199.925,243.276 199.025,243.401 198.750 C 243.525 198.475,243.828 197.612,244.075 196.833 C 244.322 196.054,244.593 195.267,244.678 195.083 C 244.907 194.587,245.950 191.222,246.666 188.667 C 247.013 187.429,247.343 186.304,247.399 186.167 C 247.455 186.029,247.769 184.792,248.097 183.417 C 249.778 176.380,250.373 173.102,251.502 164.666 C 252.261 158.998,252.563 142.661,252.027 136.250 C 251.374 128.426,250.135 120.452,248.569 114.000 C 248.246 112.671,247.869 111.096,247.730 110.500 C 247.592 109.904,247.413 109.267,247.333 109.083 C 247.253 108.900,246.929 107.813,246.614 106.667 C 245.979 104.364,244.918 100.936,244.679 100.417 C 244.594 100.233,244.291 99.371,244.005 98.500 C 243.719 97.629,243.417 96.767,243.334 96.583 C 243.251 96.400,242.683 94.975,242.072 93.417 C 241.460 91.858,240.744 90.118,240.480 89.549 C 240.216 88.980,240.000 88.478,240.000 88.433 C 240.000 88.153,236.100 80.236,234.737 77.750 C 234.335 77.017,233.801 76.042,233.551 75.583 C 233.301 75.125,233.018 74.629,232.923 74.481 C 232.828 74.333,232.571 73.883,232.353 73.481 C 232.135 73.079,231.629 72.241,231.228 71.620 C 230.828 70.998,230.500 70.457,230.500 70.418 C 230.500 70.254,225.476 62.757,224.638 61.670 C 224.460 61.439,223.560 60.237,222.638 59.000 C 221.717 57.762,220.727 56.479,220.440 56.148 C 220.152 55.817,219.568 55.105,219.143 54.565 C 217.064 51.930,212.882 47.303,208.999 43.343 C 208.524 42.859,204.551 39.146,203.167 37.892 C 201.872 36.720,199.704 34.855,198.836 34.167 C 198.431 33.846,197.743 33.283,197.306 32.917 C 196.319 32.088,194.805 30.921,192.000 28.828 C 191.603 28.532,189.604 27.114,188.000 25.990 C 186.696 25.077,183.993 23.333,181.750 21.958 C 179.834 20.784,179.073 20.334,176.667 18.958 C 173.934 17.396,167.531 14.173,165.322 13.248 C 164.733 13.001,164.175 12.739,164.083 12.666 C 163.992 12.593,163.279 12.290,162.500 11.994 C 161.721 11.698,161.008 11.401,160.917 11.335 C 160.825 11.269,160.188 11.007,159.500 10.752 C 158.813 10.498,158.025 10.188,157.750 10.064 C 154.254 8.481,144.267 5.384,138.417 4.069 C 137.042 3.760,135.692 3.434,135.417 3.346 C 135.142 3.258,133.604 2.956,132.000 2.677 C 130.396 2.397,128.746 2.092,128.333 2.000 C 127.025 1.705,121.422 1.005,116.333 0.499 C 111.805 0.049,105.726 0.000,53.875 0.000 L 0.000 0.000 0.000 147.672 " stroke="none" fill="#c4242c" fill-rule="evenodd"></path><path id="path1" d="M244.335 0.174 C 240.463 0.383,232.941 1.175,229.500 1.736 C 226.941 2.153,222.423 2.978,221.663 3.167 C 221.252 3.268,220.129 3.528,219.167 3.743 C 215.543 4.553,207.682 6.713,206.333 7.269 C 205.943 7.430,200.976 9.167,200.409 9.341 C 199.087 9.747,198.263 11.622,198.818 12.962 C 199.022 13.457,199.190 13.597,202.652 16.181 C 203.881 17.098,205.093 18.014,205.344 18.216 C 205.595 18.418,206.228 18.921,206.751 19.333 C 208.591 20.784,212.446 24.018,213.407 24.917 C 213.700 25.192,214.610 26.014,215.429 26.743 C 217.082 28.217,223.654 34.756,225.336 36.601 C 225.931 37.253,226.754 38.156,227.167 38.609 C 227.579 39.062,228.254 39.833,228.667 40.323 C 229.079 40.813,229.619 41.447,229.867 41.732 C 230.114 42.017,230.778 42.813,231.341 43.500 C 231.905 44.188,232.640 45.077,232.974 45.476 C 233.309 45.876,233.653 46.326,233.738 46.476 C 233.823 46.627,233.977 46.825,234.081 46.917 C 234.184 47.008,234.487 47.383,234.754 47.750 C 235.021 48.117,235.301 48.492,235.375 48.583 C 235.450 48.675,236.035 49.462,236.676 50.333 C 237.317 51.204,237.916 52.009,238.007 52.121 C 238.099 52.234,238.399 52.660,238.674 53.068 C 238.950 53.477,239.416 54.014,239.711 54.262 L 240.248 54.713 242.416 54.604 C 243.608 54.544,245.071 54.411,245.667 54.308 C 247.133 54.054,257.299 54.049,259.250 54.301 C 260.075 54.408,261.883 54.613,263.269 54.758 C 267.107 55.158,273.384 56.313,275.917 57.085 C 276.375 57.225,277.462 57.527,278.333 57.758 C 279.204 57.988,280.067 58.245,280.250 58.328 C 280.433 58.411,281.371 58.720,282.333 59.015 C 283.296 59.310,284.158 59.604,284.250 59.668 C 284.342 59.732,285.129 60.032,286.000 60.333 C 286.871 60.635,287.658 60.939,287.750 61.010 C 287.842 61.080,288.516 61.375,289.248 61.666 C 289.980 61.957,290.768 62.296,290.998 62.419 C 291.228 62.542,292.542 63.181,293.917 63.838 C 295.292 64.494,296.454 65.081,296.500 65.141 C 296.546 65.201,296.958 65.440,297.417 65.673 C 298.461 66.203,300.464 67.361,301.667 68.130 C 303.261 69.149,307.080 71.716,307.167 71.827 C 307.212 71.886,307.625 72.192,308.083 72.509 C 308.542 72.825,308.954 73.122,309.000 73.169 C 309.141 73.315,310.077 74.061,310.669 74.500 C 311.237 74.920,311.912 75.491,313.829 77.167 C 314.406 77.671,314.955 78.133,315.050 78.194 C 316.492 79.118,324.819 88.176,326.730 90.899 C 326.994 91.275,327.263 91.621,327.326 91.667 C 327.390 91.712,327.774 92.226,328.179 92.809 C 328.585 93.391,329.161 94.216,329.459 94.642 C 330.350 95.916,331.167 97.167,331.167 97.260 C 331.167 97.308,331.308 97.499,331.480 97.684 C 331.855 98.086,331.230 98.365,337.286 95.099 C 339.649 93.824,341.883 92.633,342.250 92.452 C 342.617 92.271,342.954 92.074,343.000 92.014 C 343.046 91.955,343.571 91.658,344.167 91.355 C 344.762 91.053,345.550 90.636,345.917 90.429 C 346.283 90.223,348.721 88.908,351.333 87.508 C 356.481 84.750,357.556 84.171,359.083 83.337 C 360.171 82.742,360.396 82.621,366.667 79.249 C 369.004 77.992,371.442 76.677,372.083 76.326 C 372.725 75.975,373.738 75.440,374.333 75.138 C 374.929 74.836,375.492 74.526,375.583 74.448 C 375.675 74.371,376.594 73.860,377.625 73.313 L 379.500 72.318 378.959 71.441 C 378.661 70.959,378.324 70.418,378.211 70.240 C 378.098 70.062,377.697 69.429,377.320 68.833 C 375.542 66.021,373.930 63.616,372.784 62.063 C 368.549 56.321,368.121 55.777,364.474 51.500 C 361.477 47.986,361.618 48.136,356.917 43.410 C 352.819 39.291,349.162 35.957,345.624 33.117 C 344.637 32.325,343.737 31.599,343.624 31.503 C 343.510 31.408,343.117 31.103,342.750 30.827 C 342.383 30.550,341.858 30.143,341.583 29.921 C 341.087 29.521,340.715 29.248,339.253 28.212 C 338.835 27.915,338.401 27.593,338.288 27.494 C 337.921 27.174,334.127 24.606,332.333 23.464 C 331.371 22.851,330.493 22.271,330.382 22.175 C 330.271 22.079,330.148 22.000,330.107 22.000 C 330.067 22.000,329.557 21.701,328.975 21.335 C 328.393 20.969,327.542 20.466,327.083 20.216 C 326.625 19.966,326.129 19.685,325.982 19.589 C 325.835 19.494,325.197 19.134,324.566 18.789 C 323.934 18.444,322.892 17.873,322.250 17.519 C 319.424 15.962,310.818 11.833,310.397 11.833 C 310.351 11.833,309.923 11.649,309.448 11.424 C 308.446 10.948,304.727 9.478,303.750 9.171 C 303.383 9.055,302.858 8.859,302.583 8.735 C 301.894 8.425,295.718 6.401,295.000 6.250 C 294.679 6.183,294.342 6.074,294.250 6.008 C 294.158 5.942,293.108 5.643,291.917 5.344 C 290.725 5.045,289.600 4.736,289.417 4.659 C 287.766 3.959,276.130 1.768,270.917 1.176 C 269.267 0.988,267.317 0.757,266.583 0.662 C 262.610 0.149,249.944 -0.129,244.335 0.174 M120.843 81.042 C 120.512 81.271,120.053 81.902,119.658 82.667 C 118.774 84.379,117.346 87.443,117.062 88.236 C 116.934 88.594,116.767 88.969,116.692 89.069 C 116.616 89.169,116.379 89.700,116.165 90.250 C 115.951 90.800,115.600 91.641,115.386 92.119 C 114.964 93.059,114.317 94.787,113.401 97.417 C 113.082 98.333,112.750 99.233,112.664 99.417 C 112.457 99.857,111.667 102.331,111.667 102.538 C 111.667 102.627,111.557 102.936,111.422 103.225 C 110.918 104.310,108.725 112.604,107.891 116.583 C 107.564 118.142,107.226 119.754,107.140 120.167 C 104.150 134.450,103.862 154.261,106.407 170.667 C 107.860 180.032,111.612 194.245,114.084 199.750 C 114.207 200.025,114.473 200.700,114.675 201.250 C 114.877 201.800,115.210 202.625,115.415 203.083 C 115.620 203.542,115.846 204.103,115.917 204.330 C 115.989 204.558,116.299 205.290,116.607 205.956 C 116.915 206.623,117.167 207.199,117.167 207.237 C 117.167 207.275,117.569 208.156,118.061 209.195 C 118.553 210.234,119.239 211.683,119.587 212.417 C 120.146 213.597,123.051 219.093,123.954 220.676 C 124.571 221.759,125.846 223.902,126.511 224.975 C 126.871 225.557,127.167 226.101,127.167 226.183 C 127.167 226.266,127.230 226.333,127.307 226.333 C 127.384 226.333,127.642 226.690,127.881 227.125 C 128.119 227.560,128.429 228.067,128.569 228.250 C 128.710 228.433,129.327 229.333,129.940 230.250 C 130.554 231.167,131.198 232.104,131.371 232.333 C 131.543 232.563,132.166 233.425,132.754 234.250 C 133.342 235.075,133.885 235.825,133.961 235.917 C 134.036 236.008,134.432 236.525,134.841 237.064 C 135.249 237.604,135.771 238.292,136.000 238.594 C 136.585 239.366,138.988 242.316,139.521 242.917 C 139.765 243.192,140.814 244.392,141.854 245.583 C 143.710 247.711,150.275 254.384,152.599 256.505 C 154.659 258.384,155.426 259.067,156.181 259.693 C 158.971 262.006,160.164 262.985,160.720 263.419 C 161.069 263.693,161.640 264.142,161.988 264.417 C 162.790 265.051,165.617 267.164,166.167 267.539 C 166.396 267.696,166.958 268.093,167.417 268.422 C 168.156 268.953,173.128 272.260,174.667 273.243 C 175.805 273.971,177.758 275.130,178.333 275.420 C 178.654 275.581,178.954 275.759,179.000 275.815 C 179.046 275.871,179.383 276.078,179.750 276.275 C 184.220 278.675,187.353 280.333,187.420 280.333 C 187.465 280.333,188.195 280.661,189.042 281.062 C 192.506 282.700,193.209 283.022,194.031 283.345 C 194.503 283.532,195.233 283.841,195.653 284.032 C 196.073 284.223,196.904 284.560,197.500 284.781 C 198.096 285.002,198.808 285.283,199.083 285.407 C 199.358 285.530,200.146 285.828,200.833 286.069 C 201.521 286.310,202.233 286.578,202.417 286.665 C 202.883 286.885,207.491 288.400,209.000 288.828 C 209.688 289.023,210.400 289.252,210.583 289.336 C 211.266 289.652,217.778 291.302,221.833 292.188 C 234.958 295.053,255.409 296.183,266.667 294.665 C 267.354 294.572,269.267 294.343,270.917 294.156 C 276.104 293.569,287.733 291.382,289.417 290.676 C 289.600 290.599,290.537 290.338,291.500 290.095 C 294.142 289.428,301.295 287.169,302.583 286.596 C 302.858 286.473,303.383 286.278,303.750 286.163 C 304.580 285.902,308.407 284.412,309.083 284.087 C 309.358 283.955,310.251 283.575,311.067 283.242 C 311.883 282.910,312.670 282.572,312.817 282.492 C 312.963 282.411,313.871 281.979,314.833 281.532 C 318.354 279.896,323.996 276.963,325.970 275.744 C 326.124 275.649,326.625 275.367,327.083 275.117 C 327.542 274.868,328.393 274.364,328.975 273.998 C 329.557 273.633,330.095 273.333,330.170 273.333 C 330.244 273.333,330.331 273.274,330.361 273.201 C 330.392 273.129,330.717 272.889,331.083 272.670 C 332.541 271.796,338.071 268.076,338.481 267.694 C 338.612 267.571,338.989 267.288,339.318 267.064 C 340.430 266.308,343.512 264.005,343.667 263.814 C 343.712 263.757,344.583 263.045,345.601 262.231 C 349.742 258.918,354.650 254.431,358.158 250.750 C 359.032 249.833,360.046 248.789,360.412 248.429 C 361.209 247.643,365.773 242.426,366.691 241.250 C 367.049 240.792,367.621 240.070,367.963 239.646 C 368.595 238.860,371.309 235.275,372.724 233.354 C 373.961 231.674,375.968 228.689,377.331 226.500 C 379.269 223.386,380.176 221.871,380.349 221.458 C 380.454 221.206,380.606 221.000,380.687 221.000 C 380.767 221.000,380.833 220.940,380.833 220.868 C 380.833 220.795,381.479 219.539,382.269 218.076 C 384.222 214.458,387.217 208.320,388.003 206.326 C 388.199 205.829,388.528 205.046,388.734 204.586 C 388.940 204.126,389.278 203.300,389.484 202.750 C 389.691 202.200,389.934 201.612,390.024 201.444 C 390.251 201.019,391.164 198.453,392.317 195.000 C 393.904 190.245,394.287 189.009,394.744 187.167 C 394.983 186.204,395.250 185.229,395.339 185.000 C 395.482 184.629,396.222 181.506,396.938 178.250 C 397.958 173.615,398.920 167.090,399.605 160.167 C 400.110 155.053,400.082 140.507,399.556 134.792 L 399.452 133.667 344.226 133.667 L 289.000 133.667 289.000 160.167 L 289.000 186.667 313.167 186.667 C 329.790 186.667,337.333 186.721,337.333 186.840 C 337.333 187.492,332.871 195.585,330.732 198.814 C 330.283 199.490,329.663 200.428,329.352 200.897 C 329.042 201.366,328.742 201.787,328.686 201.833 C 328.629 201.879,328.325 202.292,328.009 202.750 C 327.692 203.208,327.384 203.621,327.322 203.667 C 327.261 203.713,326.994 204.058,326.730 204.434 C 325.283 206.496,321.674 210.622,318.798 213.500 C 316.011 216.290,315.249 216.990,311.932 219.803 C 311.465 220.199,310.933 220.652,310.750 220.809 C 310.567 220.966,310.229 221.215,310.000 221.363 C 309.771 221.511,309.432 221.771,309.246 221.941 C 309.061 222.111,308.536 222.509,308.079 222.825 C 307.623 223.141,307.212 223.447,307.167 223.506 C 306.952 223.780,301.357 227.437,299.500 228.516 C 297.235 229.833,296.609 230.165,294.000 231.436 C 292.579 232.128,291.154 232.827,290.833 232.989 C 290.512 233.150,289.800 233.458,289.250 233.672 C 288.700 233.886,288.100 234.150,287.917 234.260 C 287.733 234.369,286.871 234.704,286.000 235.003 C 285.129 235.303,284.342 235.601,284.250 235.665 C 284.158 235.729,283.296 236.022,282.333 236.315 C 281.371 236.609,280.471 236.908,280.333 236.979 C 280.196 237.051,279.296 237.316,278.333 237.568 C 277.371 237.820,276.283 238.129,275.917 238.255 C 274.072 238.888,266.991 240.188,263.269 240.576 C 261.883 240.720,260.112 240.911,259.333 240.999 C 253.282 241.684,240.988 240.979,234.843 239.593 C 234.242 239.458,232.737 239.125,231.500 238.854 C 228.002 238.088,222.392 236.462,220.750 235.738 C 220.475 235.617,219.463 235.222,218.500 234.860 C 216.066 233.947,212.020 232.184,210.830 231.520 C 210.690 231.442,209.679 230.908,208.583 230.333 C 206.166 229.066,205.939 228.942,205.833 228.825 C 205.787 228.774,205.331 228.499,204.819 228.214 C 203.893 227.697,201.902 226.462,201.583 226.206 C 201.492 226.133,200.554 225.489,199.500 224.775 C 197.254 223.255,196.540 222.752,196.080 222.366 C 195.895 222.211,195.470 221.878,195.136 221.628 C 194.802 221.377,194.429 221.077,194.306 220.961 C 194.184 220.845,193.797 220.536,193.447 220.275 C 186.508 215.090,177.150 204.281,171.875 195.359 C 171.531 194.777,171.109 194.064,170.936 193.775 C 170.763 193.486,170.217 192.463,169.723 191.500 C 169.229 190.537,168.759 189.668,168.679 189.567 C 168.600 189.467,168.293 188.829,167.997 188.150 C 167.702 187.472,167.398 186.839,167.322 186.744 C 167.247 186.649,166.948 185.974,166.657 185.244 C 166.366 184.514,166.066 183.839,165.990 183.743 C 165.913 183.648,165.620 182.936,165.339 182.160 C 165.057 181.385,164.754 180.600,164.665 180.417 C 163.292 177.591,160.658 167.530,159.915 162.274 C 159.693 160.703,159.435 158.967,159.341 158.417 C 158.020 150.627,158.823 136.539,161.159 126.500 C 161.901 123.313,161.862 122.722,160.738 120.247 C 160.530 119.787,160.206 119.023,160.019 118.549 C 159.502 117.236,158.476 115.116,157.375 113.083 C 155.788 110.155,155.458 109.587,155.308 109.528 C 155.230 109.497,155.167 109.408,155.167 109.331 C 155.167 109.182,154.157 107.477,153.984 107.333 C 153.928 107.287,153.673 106.912,153.416 106.500 C 152.437 104.927,150.180 101.981,148.064 99.519 C 145.399 96.415,139.817 91.079,137.768 89.676 C 137.575 89.544,137.379 89.391,137.333 89.337 C 136.970 88.905,131.845 85.424,129.938 84.314 C 129.406 84.004,128.733 83.609,128.443 83.436 C 124.335 80.986,121.988 80.246,120.843 81.042 " stroke="none" fill="#040404" fill-rule="evenodd"></path><path id="path2" d="" stroke="none" fill="#c81418" fill-rule="evenodd"></path><path id="path3" d="" stroke="none" fill="#c81418" fill-rule="evenodd"></path><path id="path4" d="" stroke="none" fill="#c81418" fill-rule="evenodd"></path></g></svg>