<?xml version="1.0" encoding="UTF-8"?><svg xmlns="http://www.w3.org/2000/svg" viewBox="0 0 135.61 132.22"><defs><style>.e{fill:#bf0c0c;}</style></defs><g id="a"/><g id="b"><g id="c"><path id="d" class="e" d="M0,0V132.22H135.61V0H0ZM5.65,5.65h124.31V126.57H5.65V5.65Zm29.93,25.3c0-.38,.1-.66,.57-.66,3.64-.19,8.95-.28,14.54-.28,15.66,0,22.47,8.58,22.47,19.59,0,14.35-10.39,20.51-23.16,20.51-2.15,0-2.89-.09-4.38-.09v21.71c0,.47-.19,.66-.65,.66h-8.72c-.47,0-.66-.18-.66-.66V30.95Zm10.03,30.02c1.31,.09,2.34,.09,4.57,.09,6.62,0,12.81-2.33,12.81-11.28,0-7.16-4.42-10.81-11.98-10.81-2.24,0-4.38,.09-5.41,.19v21.81Zm36.17-5.13c0-.65,0-2.33-.27-5.5,0-.47,.06-.57,.43-.75,6.6-2.54,13.6-3.86,20.67-3.92,.46,0,.65,.09,.65,.56v8.2c0,.46-.15,.56-.61,.56-3.6-.22-7.21,.16-10.68,1.13v35.6c0,.47-.19,.66-.66,.66h-8.87c-.46,0-.65-.18-.65-.66V55.84Z"/></g></g></svg>